<svg width="192" height="17" viewBox="0 0 192 17" fill="none" xmlns="http://www.w3.org/2000/svg">
<path d="M7.41797 15.2227C7.41797 15.6758 7.28516 16.0039 7.01953 16.207C6.75391 16.4023 6.41016 16.5 5.98828 16.5H2.47266C2.05078 16.5 1.70703 16.4023 1.44141 16.207C1.17578 16.0039 1.04297 15.6758 1.04297 15.2227C1.04297 14.8086 1.13672 14.5039 1.32422 14.3086C1.51172 14.1133 1.73047 13.957 1.98047 13.8398C2.23047 13.7148 2.44922 13.5664 2.63672 13.3945C2.82422 13.2148 2.91797 12.9375 2.91797 12.5625V5.53125C2.91797 4.99219 2.84766 4.59375 2.70703 4.33594C2.56641 4.07812 2.30859 3.76953 1.93359 3.41016C1.68359 3.16016 1.40234 2.86328 1.08984 2.51953C0.777344 2.17578 0.621094 1.8125 0.621094 1.42969C0.621094 1.0625 0.746094 0.78125 0.996094 0.585938C1.25391 0.382813 1.55469 0.28125 1.89844 0.28125H5.55469C5.89844 0.28125 6.16797 0.304688 6.36328 0.351562C6.56641 0.390625 6.75 0.472656 6.91406 0.597656C7.07812 0.722656 7.26953 0.914062 7.48828 1.17188L14.7422 9.49219V4.20703C14.7422 3.82422 14.6484 3.54688 14.4609 3.375C14.2734 3.20312 14.0547 3.05859 13.8047 2.94141C13.5625 2.82422 13.3477 2.67188 13.1602 2.48438C12.9727 2.28906 12.8789 1.98047 12.8789 1.55859C12.8789 1.10547 13.0117 0.78125 13.2773 0.585938C13.543 0.382813 13.8867 0.28125 14.3086 0.28125H17.8242C18.2383 0.28125 18.5781 0.382813 18.8438 0.585938C19.1172 0.789062 19.2539 1.11328 19.2539 1.55859C19.2539 2.03516 19.1367 2.35937 18.9023 2.53125C18.6758 2.70312 18.3828 2.89844 18.0234 3.11719C17.7656 3.26562 17.5938 3.41016 17.5078 3.55078C17.4219 3.68359 17.3789 3.90234 17.3789 4.20703V11.0156C17.3789 11.3828 17.4062 11.7578 17.4609 12.1406C17.5234 12.5156 17.6523 12.8633 17.8477 13.1836C18.0352 13.4883 18.2383 13.8125 18.457 14.1562C18.6836 14.4922 18.7969 14.8477 18.7969 15.2227C18.7969 15.6055 18.6797 15.9141 18.4453 16.1484C18.2188 16.3828 17.9141 16.5 17.5312 16.5H13.5469C13.2188 16.5 12.9531 16.4258 12.75 16.2773C12.5547 16.1211 12.457 15.8672 12.457 15.5156C12.457 15.2891 12.3438 15.043 12.1172 14.7773C11.8906 14.5039 11.707 14.2852 11.5664 14.1211L5.55469 7.16016V12.5625C5.55469 12.875 5.59375 13.0977 5.67188 13.2305C5.75781 13.3633 5.93359 13.5078 6.19922 13.6641C6.55078 13.8828 6.83984 14.082 7.06641 14.2617C7.30078 14.4336 7.41797 14.7539 7.41797 15.2227ZM24.2695 16.8398C23.5273 16.8398 22.9062 16.6523 22.4062 16.2773C21.9141 15.8945 21.5469 15.3984 21.3047 14.7891C21.0625 14.1797 20.9414 13.5391 20.9414 12.8672V8.88281C20.9414 8.59375 20.918 8.39062 20.8711 8.27344C20.8242 8.14844 20.6914 7.98828 20.4727 7.79297C20.3008 7.63672 20.1367 7.49219 19.9805 7.35938C19.832 7.21875 19.7578 7.01562 19.7578 6.75C19.7578 6.44531 19.8555 6.20703 20.0508 6.03516C20.2539 5.85547 20.4844 5.71484 20.7422 5.61328L23.3203 4.59375C23.625 4.46875 23.9297 4.35938 24.2344 4.26562C24.5469 4.17188 24.8711 4.125 25.207 4.125C25.5273 4.125 25.7734 4.23828 25.9453 4.46484C26.1172 4.68359 26.2031 4.94141 26.2031 5.23828V11.6016C26.2031 11.8203 26.2266 12.0547 26.2734 12.3047C26.3281 12.5547 26.4297 12.7695 26.5781 12.9492C26.7266 13.1211 26.9414 13.207 27.2227 13.207C27.5117 13.207 27.7656 13.1445 27.9844 13.0195C28.2031 12.8867 28.4023 12.7266 28.582 12.5391V8.88281C28.582 8.58594 28.5547 8.37109 28.5 8.23828C28.4531 8.09766 28.3086 7.93359 28.0664 7.74609C27.8867 7.60547 27.7305 7.46875 27.5977 7.33594C27.4648 7.20312 27.3984 7.00781 27.3984 6.75C27.3984 6.44531 27.4961 6.20703 27.6914 6.03516C27.8945 5.85547 28.125 5.71484 28.3828 5.61328L30.9609 4.59375C31.2656 4.46875 31.5703 4.35938 31.875 4.26562C32.1875 4.17188 32.5117 4.125 32.8477 4.125C33.168 4.125 33.4141 4.23438 33.5859 4.45312C33.7656 4.67188 33.8555 4.93359 33.8555 5.23828V12.9727C33.8555 13.1914 33.8633 13.4102 33.8789 13.6289C33.9023 13.8398 33.9922 14.0352 34.1484 14.2148C34.3438 14.4258 34.5156 14.6016 34.6641 14.7422C34.8125 14.8828 34.8867 15.1133 34.8867 15.4336C34.8867 15.7852 34.7812 16.0508 34.5703 16.2305C34.3594 16.4102 34.082 16.5 33.7383 16.5H31.0664C30.4727 16.5 29.9492 16.2773 29.4961 15.832C29.0508 15.3867 28.8281 14.8711 28.8281 14.2852C28.3984 14.6992 27.9297 15.1016 27.4219 15.4922C26.9141 15.8828 26.3906 16.207 25.8516 16.4648C25.3203 16.7148 24.793 16.8398 24.2695 16.8398ZM41.6484 6.12891C41.3828 6.12891 41.1445 6.1875 40.9336 6.30469C40.7227 6.42188 40.6172 6.63281 40.6172 6.9375C40.6172 7.1875 40.6758 7.37891 40.793 7.51172C40.9102 7.64453 41.0781 7.75781 41.2969 7.85156C41.5312 7.95312 41.7773 8.02734 42.0352 8.07422C42.293 8.12109 42.543 8.17188 42.7852 8.22656C43.5039 8.38281 44.1758 8.64844 44.8008 9.02344C45.4258 9.39062 45.9297 9.86719 46.3125 10.4531C46.7031 11.0312 46.8984 11.7188 46.8984 12.5156C46.8984 13.5859 46.6562 14.4375 46.1719 15.0703C45.6875 15.7031 45.043 16.1562 44.2383 16.4297C43.4414 16.7031 42.5664 16.8398 41.6133 16.8398C41.3711 16.8398 41.0352 16.8086 40.6055 16.7461C40.1836 16.6836 39.8711 16.5977 39.668 16.4883H39.6562C39.5781 16.4492 39.4492 16.4062 39.2695 16.3594C39.0898 16.3125 38.957 16.2891 38.8711 16.2891C38.6289 16.2891 38.4219 16.3828 38.25 16.5703C38.0781 16.7656 37.8672 16.8633 37.6172 16.8633C37.2812 16.8633 37.0156 16.7539 36.8203 16.5352C36.6328 16.3164 36.4883 16.0586 36.3867 15.7617C36.293 15.457 36.207 15.1758 36.1289 14.918C36.0742 14.6992 36.0117 14.4844 35.9414 14.2734C35.8711 14.0547 35.8359 13.832 35.8359 13.6055C35.8359 13.1992 35.9453 12.8711 36.1641 12.6211C36.3828 12.3711 36.6992 12.2461 37.1133 12.2461C37.5195 12.2461 37.8555 12.3359 38.1211 12.5156C38.3867 12.6875 38.6211 12.9023 38.8242 13.1602C39.0352 13.418 39.2461 13.6797 39.457 13.9453C39.6758 14.2031 39.9375 14.4219 40.2422 14.6016C40.5469 14.7734 40.9297 14.8594 41.3906 14.8594C41.7109 14.8594 41.9531 14.7656 42.1172 14.5781C42.2812 14.3828 42.3633 14.1328 42.3633 13.8281C42.3633 13.3906 42.2461 13.1094 42.0117 12.9844C41.7773 12.8594 41.4766 12.7617 41.1094 12.6914C40.4375 12.5586 39.7969 12.4023 39.1875 12.2227C38.5859 12.043 38.0508 11.7969 37.582 11.4844C37.1211 11.1719 36.7539 10.7578 36.4805 10.2422C36.2148 9.72656 36.082 9.0625 36.082 8.25C36.082 7.28906 36.3438 6.50781 36.8672 5.90625C37.3906 5.29688 38.0547 4.84766 38.8594 4.55859C39.6719 4.26953 40.4961 4.125 41.332 4.125C41.6523 4.125 41.9648 4.13672 42.2695 4.16016C42.582 4.18359 42.8906 4.24609 43.1953 4.34766C43.2344 4.35547 43.3242 4.38672 43.4648 4.44141C43.6133 4.49609 43.7578 4.55078 43.8984 4.60547C44.0391 4.65234 44.1094 4.67578 44.1094 4.67578C44.3672 4.67578 44.5859 4.58594 44.7656 4.40625C44.9531 4.21875 45.1758 4.125 45.4336 4.125C45.7617 4.125 46.0039 4.25391 46.1602 4.51172C46.3164 4.76172 46.4258 5.05469 46.4883 5.39062C46.5586 5.72656 46.6133 6.01172 46.6523 6.24609C46.6836 6.42578 46.7148 6.60938 46.7461 6.79688C46.7773 6.97656 46.793 7.15625 46.793 7.33594C46.793 7.64844 46.7188 7.94531 46.5703 8.22656C46.4297 8.5 46.1758 8.63672 45.8086 8.63672C45.4414 8.63672 45.1172 8.51172 44.8359 8.26172C44.5547 8.00391 44.2734 7.71094 43.9922 7.38281C43.7109 7.05469 43.3867 6.76562 43.0195 6.51562C42.6523 6.25781 42.1953 6.12891 41.6484 6.12891ZM47.5781 13.8047C47.5781 13.0859 47.7461 12.4883 48.082 12.0117C48.418 11.5273 48.8555 11.1406 49.3945 10.8516C49.9414 10.5547 50.5312 10.3438 51.1641 10.2188C51.7969 10.0938 52.4062 10.0312 52.9922 10.0312C53.1641 10.0312 53.3398 10.0352 53.5195 10.043C53.6992 10.043 53.875 10.0586 54.0469 10.0898V7.04297C54.0469 6.84766 54.0039 6.62109 53.918 6.36328C53.8398 6.10547 53.6758 5.97656 53.4258 5.97656C53.1836 5.97656 53.0312 6.07812 52.9688 6.28125C52.9141 6.47656 52.8867 6.66406 52.8867 6.84375C52.8867 6.92188 52.8867 7.00391 52.8867 7.08984C52.8945 7.16797 52.8984 7.25 52.8984 7.33594C52.8984 8.14062 52.6211 8.70703 52.0664 9.03516C51.5117 9.35547 50.8789 9.51562 50.168 9.51562C49.5742 9.51562 49.0586 9.38281 48.6211 9.11719C48.1836 8.85156 47.9648 8.38281 47.9648 7.71094C47.9648 7.44531 48.0156 7.1875 48.1172 6.9375C48.2266 6.6875 48.3633 6.46484 48.5273 6.26953C49.0039 5.69141 49.6016 5.25 50.3203 4.94531C51.0469 4.64062 51.8086 4.43359 52.6055 4.32422C53.4102 4.20703 54.1641 4.14844 54.8672 4.14844C55.6641 4.14844 56.3945 4.26172 57.0586 4.48828C57.7227 4.71484 58.2539 5.09375 58.6523 5.625C59.0508 6.14844 59.25 6.85547 59.25 7.74609V13.1484C59.25 13.2812 59.2812 13.3984 59.3438 13.5C59.4062 13.6016 59.5117 13.6523 59.6602 13.6523C59.7773 13.6523 59.875 13.6172 59.9531 13.5469C60.0391 13.4688 60.1406 13.4297 60.2578 13.4297C60.4844 13.4297 60.6523 13.5078 60.7617 13.6641C60.8789 13.8203 60.9375 14.0039 60.9375 14.2148C60.9375 14.7617 60.7695 15.2344 60.4336 15.6328C60.1055 16.0234 59.6953 16.3203 59.2031 16.5234C58.7109 16.7344 58.2148 16.8398 57.7148 16.8398C57.1289 16.8398 56.5352 16.7109 55.9336 16.4531C55.3398 16.1953 54.9297 15.793 54.7031 15.2461C54.3047 15.8008 53.7578 16.207 53.0625 16.4648C52.375 16.7148 51.6992 16.8398 51.0352 16.8398C50.4258 16.8398 49.8555 16.7266 49.3242 16.5C48.8008 16.2656 48.3789 15.9219 48.0586 15.4688C47.7383 15.0156 47.5781 14.4609 47.5781 13.8047ZM52.8633 12.7734C52.8633 13.0859 52.9375 13.3828 53.0859 13.6641C53.2344 13.9375 53.4883 14.0742 53.8477 14.0742C53.918 14.0742 53.9844 14.0664 54.0469 14.0508V11.625C53.9141 11.5703 53.7773 11.543 53.6367 11.543C53.3398 11.543 53.1367 11.6914 53.0273 11.9883C52.918 12.2773 52.8633 12.5391 52.8633 12.7734ZM66.7266 4.125C67.0469 4.125 67.2891 4.23828 67.4531 4.46484C67.625 4.68359 67.7109 4.94141 67.7109 5.23828V6.31641C68.3281 5.74609 69.0078 5.23828 69.75 4.79297C70.4922 4.34766 71.2266 4.125 71.9531 4.125C72.7109 4.125 73.3398 4.3125 73.8398 4.6875C74.3398 5.0625 74.7148 5.55078 74.9648 6.15234C75.2227 6.75391 75.3516 7.40234 75.3516 8.09766V12.9727C75.3516 13.1914 75.3594 13.4062 75.375 13.6172C75.3984 13.8281 75.4844 14.0273 75.6328 14.2148C75.8125 14.4414 75.9688 14.6172 76.1016 14.7422C76.2422 14.8672 76.3125 15.0977 76.3125 15.4336C76.3125 15.7773 76.207 16.043 75.9961 16.2305C75.7852 16.4102 75.5117 16.5 75.1758 16.5H70.2773C69.9492 16.5 69.6953 16.4023 69.5156 16.207C69.3438 16.0117 69.2578 15.7539 69.2578 15.4336C69.2578 15.1367 69.3242 14.9062 69.457 14.7422C69.5977 14.5703 69.7344 14.3945 69.8672 14.2148C70.0078 14.0273 70.0781 13.7656 70.0781 13.4297V9.36328C70.0781 8.99609 70.0039 8.63672 69.8555 8.28516C69.7148 7.93359 69.418 7.75781 68.9648 7.75781C68.6914 7.75781 68.457 7.8125 68.2617 7.92188C68.0664 8.02344 67.8828 8.15625 67.7109 8.32031V13.1133C67.7109 13.3242 67.7188 13.5391 67.7344 13.7578C67.75 13.9688 67.8281 14.1641 67.9688 14.3438C68.1328 14.5391 68.2695 14.6992 68.3789 14.8242C68.4883 14.9414 68.543 15.1445 68.543 15.4336C68.543 15.7539 68.4531 16.0117 68.2734 16.207C68.1016 16.4023 67.8516 16.5 67.5234 16.5H62.625C62.2891 16.5 62.0156 16.4102 61.8047 16.2305C61.5938 16.043 61.4883 15.7773 61.4883 15.4336C61.4883 15.1758 61.5352 14.9766 61.6289 14.8359C61.7305 14.6875 61.8438 14.5508 61.9688 14.4258C62.0938 14.3008 62.2031 14.1484 62.2969 13.9688C62.3984 13.7891 62.4492 13.543 62.4492 13.2305V8.88281C62.4492 8.53125 62.3945 8.26562 62.2852 8.08594C62.1758 7.90625 62.0469 7.76562 61.8984 7.66406C61.75 7.55469 61.6211 7.4375 61.5117 7.3125C61.4023 7.1875 61.3477 7 61.3477 6.75C61.3477 6.44531 61.4492 6.20703 61.6523 6.03516C61.8555 5.85547 62.082 5.71484 62.332 5.61328L64.8633 4.59375C65.1602 4.46875 65.4609 4.35938 65.7656 4.26562C66.0781 4.17188 66.3984 4.125 66.7266 4.125ZM82.8281 16.8398C81.4922 16.8398 80.4375 16.5312 79.6641 15.9141C78.8984 15.2891 78.5156 14.2734 78.5156 12.8672V7.76953C78.5156 7.43359 78.4414 7.18359 78.293 7.01953C78.1445 6.85547 77.9727 6.72266 77.7773 6.62109C77.582 6.51172 77.4102 6.38281 77.2617 6.23438C77.1133 6.07812 77.0391 5.84375 77.0391 5.53125C77.0391 5.21094 77.1523 4.96094 77.3789 4.78125C77.6055 4.59375 77.8711 4.5 78.1758 4.5H78.7031C78.9297 4.5 79.1523 4.38672 79.3711 4.16016C79.5977 3.92578 79.8242 3.63672 80.0508 3.29297C80.2852 2.94922 80.5273 2.60938 80.7773 2.27344C81.0352 1.92969 81.3086 1.64453 81.5977 1.41797C81.8867 1.18359 82.2031 1.06641 82.5469 1.06641C82.9375 1.06641 83.2422 1.17578 83.4609 1.39453C83.6797 1.61328 83.7891 1.91797 83.7891 2.30859V4.5H86.4492C86.7461 4.5 87 4.57031 87.2109 4.71094C87.4219 4.85156 87.5273 5.08594 87.5273 5.41406C87.5273 5.85156 87.3867 6.18359 87.1055 6.41016C86.832 6.63672 86.5 6.78906 86.1094 6.86719C85.7188 6.9375 85.3516 6.97266 85.0078 6.97266H83.7891V11.6133C83.7891 11.9961 83.8633 12.3594 84.0117 12.7031C84.1602 13.0391 84.4648 13.207 84.9258 13.207C85.2305 13.207 85.4883 13.1211 85.6992 12.9492C85.918 12.7695 86.1211 12.5938 86.3086 12.4219C86.5039 12.25 86.7109 12.1641 86.9297 12.1641C87.1328 12.1641 87.2734 12.2617 87.3516 12.457C87.4375 12.6523 87.4805 12.8281 87.4805 12.9844C87.4805 13.7734 87.2422 14.457 86.7656 15.0352C86.2891 15.6133 85.6914 16.0586 84.9727 16.3711C84.2617 16.6836 83.5469 16.8398 82.8281 16.8398ZM88.5469 13.8047C88.5469 13.0859 88.7148 12.4883 89.0508 12.0117C89.3867 11.5273 89.8242 11.1406 90.3633 10.8516C90.9102 10.5547 91.5 10.3438 92.1328 10.2188C92.7656 10.0938 93.375 10.0312 93.9609 10.0312C94.1328 10.0312 94.3086 10.0352 94.4883 10.043C94.668 10.043 94.8438 10.0586 95.0156 10.0898V7.04297C95.0156 6.84766 94.9727 6.62109 94.8867 6.36328C94.8086 6.10547 94.6445 5.97656 94.3945 5.97656C94.1523 5.97656 94 6.07812 93.9375 6.28125C93.8828 6.47656 93.8555 6.66406 93.8555 6.84375C93.8555 6.92188 93.8555 7.00391 93.8555 7.08984C93.8633 7.16797 93.8672 7.25 93.8672 7.33594C93.8672 8.14062 93.5898 8.70703 93.0352 9.03516C92.4805 9.35547 91.8477 9.51562 91.1367 9.51562C90.543 9.51562 90.0273 9.38281 89.5898 9.11719C89.1523 8.85156 88.9336 8.38281 88.9336 7.71094C88.9336 7.44531 88.9844 7.1875 89.0859 6.9375C89.1953 6.6875 89.332 6.46484 89.4961 6.26953C89.9727 5.69141 90.5703 5.25 91.2891 4.94531C92.0156 4.64062 92.7773 4.43359 93.5742 4.32422C94.3789 4.20703 95.1328 4.14844 95.8359 4.14844C96.6328 4.14844 97.3633 4.26172 98.0273 4.48828C98.6914 4.71484 99.2227 5.09375 99.6211 5.625C100.02 6.14844 100.219 6.85547 100.219 7.74609V13.1484C100.219 13.2812 100.25 13.3984 100.312 13.5C100.375 13.6016 100.48 13.6523 100.629 13.6523C100.746 13.6523 100.844 13.6172 100.922 13.5469C101.008 13.4688 101.109 13.4297 101.227 13.4297C101.453 13.4297 101.621 13.5078 101.73 13.6641C101.848 13.8203 101.906 14.0039 101.906 14.2148C101.906 14.7617 101.738 15.2344 101.402 15.6328C101.074 16.0234 100.664 16.3203 100.172 16.5234C99.6797 16.7344 99.1836 16.8398 98.6836 16.8398C98.0977 16.8398 97.5039 16.7109 96.9023 16.4531C96.3086 16.1953 95.8984 15.793 95.6719 15.2461C95.2734 15.8008 94.7266 16.207 94.0312 16.4648C93.3438 16.7148 92.668 16.8398 92.0039 16.8398C91.3945 16.8398 90.8242 16.7266 90.293 16.5C89.7695 16.2656 89.3477 15.9219 89.0273 15.4688C88.707 15.0156 88.5469 14.4609 88.5469 13.8047ZM93.832 12.7734C93.832 13.0859 93.9062 13.3828 94.0547 13.6641C94.2031 13.9375 94.457 14.0742 94.8164 14.0742C94.8867 14.0742 94.9531 14.0664 95.0156 14.0508V11.625C94.8828 11.5703 94.7461 11.543 94.6055 11.543C94.3086 11.543 94.1055 11.6914 93.9961 11.9883C93.8867 12.2773 93.832 12.5391 93.832 12.7734ZM108.645 9.55078V12.9727C108.645 13.4258 108.695 13.7305 108.797 13.8867C108.906 14.043 109.188 14.168 109.641 14.2617C110.039 14.3398 110.355 14.4336 110.59 14.543C110.832 14.6445 110.953 14.9414 110.953 15.4336C110.953 15.7852 110.848 16.0508 110.637 16.2305C110.426 16.4102 110.148 16.5 109.805 16.5H103.617C103.281 16.5 103.004 16.4102 102.785 16.2305C102.566 16.0508 102.457 15.7852 102.457 15.4336C102.457 15.1523 102.508 14.9414 102.609 14.8008C102.719 14.6602 102.84 14.5352 102.973 14.4258C103.113 14.3086 103.234 14.1602 103.336 13.9805C103.445 13.793 103.5 13.5117 103.5 13.1367V8.88281C103.5 8.53125 103.438 8.26953 103.312 8.09766C103.195 7.91797 103.059 7.77734 102.902 7.67578C102.754 7.57422 102.617 7.46094 102.492 7.33594C102.375 7.20312 102.316 7.00781 102.316 6.75C102.316 6.44531 102.414 6.20703 102.609 6.03516C102.812 5.85547 103.043 5.71484 103.301 5.61328L106.23 4.45312C106.418 4.375 106.609 4.30078 106.805 4.23047C107 4.16016 107.203 4.125 107.414 4.125C107.688 4.125 107.891 4.23047 108.023 4.44141C108.156 4.64453 108.246 4.88281 108.293 5.15625C108.348 5.42188 108.387 5.65625 108.41 5.85938C108.434 6 108.457 6.14062 108.48 6.28125C108.504 6.42188 108.523 6.5625 108.539 6.70312C108.781 5.98438 109.152 5.375 109.652 4.875C110.16 4.375 110.859 4.125 111.75 4.125C112.383 4.125 112.879 4.28125 113.238 4.59375C113.605 4.90625 113.867 5.30859 114.023 5.80078C114.18 6.28516 114.258 6.80078 114.258 7.34766C114.258 7.85547 114.191 8.34766 114.059 8.82422C113.926 9.29297 113.691 9.67969 113.355 9.98438C113.027 10.2891 112.562 10.4414 111.961 10.4414C111.305 10.4414 110.824 10.3398 110.52 10.1367C110.223 9.93359 110.031 9.68359 109.945 9.38672C109.859 9.08984 109.812 8.79297 109.805 8.49609C109.805 8.19922 109.781 7.94922 109.734 7.74609C109.688 7.54297 109.547 7.44141 109.312 7.44141C109.102 7.44141 108.949 7.58984 108.855 7.88672C108.762 8.17578 108.703 8.48828 108.68 8.82422C108.656 9.16016 108.645 9.40234 108.645 9.55078ZM114.773 13.8047C114.773 13.0859 114.941 12.4883 115.277 12.0117C115.613 11.5273 116.051 11.1406 116.59 10.8516C117.137 10.5547 117.727 10.3438 118.359 10.2188C118.992 10.0938 119.602 10.0312 120.188 10.0312C120.359 10.0312 120.535 10.0352 120.715 10.043C120.895 10.043 121.07 10.0586 121.242 10.0898V7.04297C121.242 6.84766 121.199 6.62109 121.113 6.36328C121.035 6.10547 120.871 5.97656 120.621 5.97656C120.379 5.97656 120.227 6.07812 120.164 6.28125C120.109 6.47656 120.082 6.66406 120.082 6.84375C120.082 6.92188 120.082 7.00391 120.082 7.08984C120.09 7.16797 120.094 7.25 120.094 7.33594C120.094 8.14062 119.816 8.70703 119.262 9.03516C118.707 9.35547 118.074 9.51562 117.363 9.51562C116.77 9.51562 116.254 9.38281 115.816 9.11719C115.379 8.85156 115.16 8.38281 115.16 7.71094C115.16 7.44531 115.211 7.1875 115.312 6.9375C115.422 6.6875 115.559 6.46484 115.723 6.26953C116.199 5.69141 116.797 5.25 117.516 4.94531C118.242 4.64062 119.004 4.43359 119.801 4.32422C120.605 4.20703 121.359 4.14844 122.062 4.14844C122.859 4.14844 123.59 4.26172 124.254 4.48828C124.918 4.71484 125.449 5.09375 125.848 5.625C126.246 6.14844 126.445 6.85547 126.445 7.74609V13.1484C126.445 13.2812 126.477 13.3984 126.539 13.5C126.602 13.6016 126.707 13.6523 126.855 13.6523C126.973 13.6523 127.07 13.6172 127.148 13.5469C127.234 13.4688 127.336 13.4297 127.453 13.4297C127.68 13.4297 127.848 13.5078 127.957 13.6641C128.074 13.8203 128.133 14.0039 128.133 14.2148C128.133 14.7617 127.965 15.2344 127.629 15.6328C127.301 16.0234 126.891 16.3203 126.398 16.5234C125.906 16.7344 125.41 16.8398 124.91 16.8398C124.324 16.8398 123.73 16.7109 123.129 16.4531C122.535 16.1953 122.125 15.793 121.898 15.2461C121.5 15.8008 120.953 16.207 120.258 16.4648C119.57 16.7148 118.895 16.8398 118.23 16.8398C117.621 16.8398 117.051 16.7266 116.52 16.5C115.996 16.2656 115.574 15.9219 115.254 15.4688C114.934 15.0156 114.773 14.4609 114.773 13.8047ZM120.059 12.7734C120.059 13.0859 120.133 13.3828 120.281 13.6641C120.43 13.9375 120.684 14.0742 121.043 14.0742C121.113 14.0742 121.18 14.0664 121.242 14.0508V11.625C121.109 11.5703 120.973 11.543 120.832 11.543C120.535 11.543 120.332 11.6914 120.223 11.9883C120.113 12.2773 120.059 12.5391 120.059 12.7734ZM151.219 5.96484C151.219 6.85547 151 7.58594 150.562 8.15625C150.133 8.71875 149.574 9.16797 148.887 9.50391L150.668 12.9141C150.84 13.2344 151.047 13.4844 151.289 13.6641C151.531 13.8438 151.746 14.043 151.934 14.2617C152.121 14.4727 152.215 14.793 152.215 15.2227C152.215 15.668 152.086 15.9922 151.828 16.1953C151.57 16.3984 151.23 16.5 150.809 16.5H145.793C144.895 16.5 144.445 16.0742 144.445 15.2227C144.445 14.8945 144.57 14.5859 144.82 14.2969C144.828 14.2188 144.844 14.1445 144.867 14.0742C144.891 13.9961 144.902 13.918 144.902 13.8398C144.902 13.7383 144.844 13.5312 144.727 13.2188C144.609 12.9062 144.465 12.5547 144.293 12.1641C144.129 11.7734 143.969 11.4023 143.812 11.0508C143.719 11.0586 143.629 11.0625 143.543 11.0625C143.059 11.0625 142.574 11.0078 142.09 10.8984V12.668C142.09 12.8867 142.102 13.0352 142.125 13.1133C142.148 13.1914 142.23 13.3203 142.371 13.5C142.605 13.7891 142.812 14.0469 142.992 14.2734C143.172 14.4922 143.262 14.8086 143.262 15.2227C143.262 15.6758 143.133 16.0039 142.875 16.207C142.625 16.4023 142.285 16.5 141.855 16.5H136.113C135.691 16.5 135.352 16.3984 135.094 16.1953C134.844 15.9922 134.719 15.668 134.719 15.2227C134.719 14.8164 134.797 14.5195 134.953 14.332C135.117 14.1367 135.305 13.9805 135.516 13.8633C135.734 13.7383 135.922 13.5938 136.078 13.4297C136.242 13.2656 136.324 13.0117 136.324 12.668V4.11328C136.324 3.76953 136.242 3.51562 136.078 3.35156C135.922 3.17969 135.734 3.03516 135.516 2.91797C135.305 2.79297 135.117 2.63672 134.953 2.44922C134.797 2.25391 134.719 1.95703 134.719 1.55859C134.719 1.11328 134.844 0.789062 135.094 0.585938C135.352 0.382813 135.691 0.28125 136.113 0.28125H142.641C143.359 0.28125 144.113 0.335938 144.902 0.445312C145.699 0.554687 146.469 0.738281 147.211 0.996094C147.961 1.24609 148.637 1.58984 149.238 2.02734C149.848 2.45703 150.328 2.99609 150.68 3.64453C151.039 4.29297 151.219 5.06641 151.219 5.96484ZM142.09 2.63672V8.84766C142.262 8.86328 142.457 8.87109 142.676 8.87109C143.629 8.87109 144.312 8.60156 144.727 8.0625C145.141 7.51562 145.348 6.79688 145.348 5.90625C145.348 5 145.07 4.23047 144.516 3.59766C143.969 2.95703 143.227 2.63672 142.289 2.63672H142.09ZM153.117 13.8047C153.117 13.0859 153.285 12.4883 153.621 12.0117C153.957 11.5273 154.395 11.1406 154.934 10.8516C155.48 10.5547 156.07 10.3438 156.703 10.2188C157.336 10.0938 157.945 10.0312 158.531 10.0312C158.703 10.0312 158.879 10.0352 159.059 10.043C159.238 10.043 159.414 10.0586 159.586 10.0898V7.04297C159.586 6.84766 159.543 6.62109 159.457 6.36328C159.379 6.10547 159.215 5.97656 158.965 5.97656C158.723 5.97656 158.57 6.07812 158.508 6.28125C158.453 6.47656 158.426 6.66406 158.426 6.84375C158.426 6.92188 158.426 7.00391 158.426 7.08984C158.434 7.16797 158.438 7.25 158.438 7.33594C158.438 8.14062 158.16 8.70703 157.605 9.03516C157.051 9.35547 156.418 9.51562 155.707 9.51562C155.113 9.51562 154.598 9.38281 154.16 9.11719C153.723 8.85156 153.504 8.38281 153.504 7.71094C153.504 7.44531 153.555 7.1875 153.656 6.9375C153.766 6.6875 153.902 6.46484 154.066 6.26953C154.543 5.69141 155.141 5.25 155.859 4.94531C156.586 4.64062 157.348 4.43359 158.145 4.32422C158.949 4.20703 159.703 4.14844 160.406 4.14844C161.203 4.14844 161.934 4.26172 162.598 4.48828C163.262 4.71484 163.793 5.09375 164.191 5.625C164.59 6.14844 164.789 6.85547 164.789 7.74609V13.1484C164.789 13.2812 164.82 13.3984 164.883 13.5C164.945 13.6016 165.051 13.6523 165.199 13.6523C165.316 13.6523 165.414 13.6172 165.492 13.5469C165.578 13.4688 165.68 13.4297 165.797 13.4297C166.023 13.4297 166.191 13.5078 166.301 13.6641C166.418 13.8203 166.477 14.0039 166.477 14.2148C166.477 14.7617 166.309 15.2344 165.973 15.6328C165.645 16.0234 165.234 16.3203 164.742 16.5234C164.25 16.7344 163.754 16.8398 163.254 16.8398C162.668 16.8398 162.074 16.7109 161.473 16.4531C160.879 16.1953 160.469 15.793 160.242 15.2461C159.844 15.8008 159.297 16.207 158.602 16.4648C157.914 16.7148 157.238 16.8398 156.574 16.8398C155.965 16.8398 155.395 16.7266 154.863 16.5C154.34 16.2656 153.918 15.9219 153.598 15.4688C153.277 15.0156 153.117 14.4609 153.117 13.8047ZM158.402 12.7734C158.402 13.0859 158.477 13.3828 158.625 13.6641C158.773 13.9375 159.027 14.0742 159.387 14.0742C159.457 14.0742 159.523 14.0664 159.586 14.0508V11.625C159.453 11.5703 159.316 11.543 159.176 11.543C158.879 11.543 158.676 11.6914 158.566 11.9883C158.457 12.2773 158.402 12.5391 158.402 12.7734ZM172.242 6.12891C171.977 6.12891 171.738 6.1875 171.527 6.30469C171.316 6.42188 171.211 6.63281 171.211 6.9375C171.211 7.1875 171.27 7.37891 171.387 7.51172C171.504 7.64453 171.672 7.75781 171.891 7.85156C172.125 7.95312 172.371 8.02734 172.629 8.07422C172.887 8.12109 173.137 8.17188 173.379 8.22656C174.098 8.38281 174.77 8.64844 175.395 9.02344C176.02 9.39062 176.523 9.86719 176.906 10.4531C177.297 11.0312 177.492 11.7188 177.492 12.5156C177.492 13.5859 177.25 14.4375 176.766 15.0703C176.281 15.7031 175.637 16.1562 174.832 16.4297C174.035 16.7031 173.16 16.8398 172.207 16.8398C171.965 16.8398 171.629 16.8086 171.199 16.7461C170.777 16.6836 170.465 16.5977 170.262 16.4883H170.25C170.172 16.4492 170.043 16.4062 169.863 16.3594C169.684 16.3125 169.551 16.2891 169.465 16.2891C169.223 16.2891 169.016 16.3828 168.844 16.5703C168.672 16.7656 168.461 16.8633 168.211 16.8633C167.875 16.8633 167.609 16.7539 167.414 16.5352C167.227 16.3164 167.082 16.0586 166.98 15.7617C166.887 15.457 166.801 15.1758 166.723 14.918C166.668 14.6992 166.605 14.4844 166.535 14.2734C166.465 14.0547 166.43 13.832 166.43 13.6055C166.43 13.1992 166.539 12.8711 166.758 12.6211C166.977 12.3711 167.293 12.2461 167.707 12.2461C168.113 12.2461 168.449 12.3359 168.715 12.5156C168.98 12.6875 169.215 12.9023 169.418 13.1602C169.629 13.418 169.84 13.6797 170.051 13.9453C170.27 14.2031 170.531 14.4219 170.836 14.6016C171.141 14.7734 171.523 14.8594 171.984 14.8594C172.305 14.8594 172.547 14.7656 172.711 14.5781C172.875 14.3828 172.957 14.1328 172.957 13.8281C172.957 13.3906 172.84 13.1094 172.605 12.9844C172.371 12.8594 172.07 12.7617 171.703 12.6914C171.031 12.5586 170.391 12.4023 169.781 12.2227C169.18 12.043 168.645 11.7969 168.176 11.4844C167.715 11.1719 167.348 10.7578 167.074 10.2422C166.809 9.72656 166.676 9.0625 166.676 8.25C166.676 7.28906 166.938 6.50781 167.461 5.90625C167.984 5.29688 168.648 4.84766 169.453 4.55859C170.266 4.26953 171.09 4.125 171.926 4.125C172.246 4.125 172.559 4.13672 172.863 4.16016C173.176 4.18359 173.484 4.24609 173.789 4.34766C173.828 4.35547 173.918 4.38672 174.059 4.44141C174.207 4.49609 174.352 4.55078 174.492 4.60547C174.633 4.65234 174.703 4.67578 174.703 4.67578C174.961 4.67578 175.18 4.58594 175.359 4.40625C175.547 4.21875 175.77 4.125 176.027 4.125C176.355 4.125 176.598 4.25391 176.754 4.51172C176.91 4.76172 177.02 5.05469 177.082 5.39062C177.152 5.72656 177.207 6.01172 177.246 6.24609C177.277 6.42578 177.309 6.60938 177.34 6.79688C177.371 6.97656 177.387 7.15625 177.387 7.33594C177.387 7.64844 177.312 7.94531 177.164 8.22656C177.023 8.5 176.77 8.63672 176.402 8.63672C176.035 8.63672 175.711 8.51172 175.43 8.26172C175.148 8.00391 174.867 7.71094 174.586 7.38281C174.305 7.05469 173.98 6.76562 173.613 6.51562C173.246 6.25781 172.789 6.12891 172.242 6.12891ZM178.172 13.8047C178.172 13.0859 178.34 12.4883 178.676 12.0117C179.012 11.5273 179.449 11.1406 179.988 10.8516C180.535 10.5547 181.125 10.3438 181.758 10.2188C182.391 10.0938 183 10.0312 183.586 10.0312C183.758 10.0312 183.934 10.0352 184.113 10.043C184.293 10.043 184.469 10.0586 184.641 10.0898V7.04297C184.641 6.84766 184.598 6.62109 184.512 6.36328C184.434 6.10547 184.27 5.97656 184.02 5.97656C183.777 5.97656 183.625 6.07812 183.562 6.28125C183.508 6.47656 183.48 6.66406 183.48 6.84375C183.48 6.92188 183.48 7.00391 183.48 7.08984C183.488 7.16797 183.492 7.25 183.492 7.33594C183.492 8.14062 183.215 8.70703 182.66 9.03516C182.105 9.35547 181.473 9.51562 180.762 9.51562C180.168 9.51562 179.652 9.38281 179.215 9.11719C178.777 8.85156 178.559 8.38281 178.559 7.71094C178.559 7.44531 178.609 7.1875 178.711 6.9375C178.82 6.6875 178.957 6.46484 179.121 6.26953C179.598 5.69141 180.195 5.25 180.914 4.94531C181.641 4.64062 182.402 4.43359 183.199 4.32422C184.004 4.20703 184.758 4.14844 185.461 4.14844C186.258 4.14844 186.988 4.26172 187.652 4.48828C188.316 4.71484 188.848 5.09375 189.246 5.625C189.645 6.14844 189.844 6.85547 189.844 7.74609V13.1484C189.844 13.2812 189.875 13.3984 189.938 13.5C190 13.6016 190.105 13.6523 190.254 13.6523C190.371 13.6523 190.469 13.6172 190.547 13.5469C190.633 13.4688 190.734 13.4297 190.852 13.4297C191.078 13.4297 191.246 13.5078 191.355 13.6641C191.473 13.8203 191.531 14.0039 191.531 14.2148C191.531 14.7617 191.363 15.2344 191.027 15.6328C190.699 16.0234 190.289 16.3203 189.797 16.5234C189.305 16.7344 188.809 16.8398 188.309 16.8398C187.723 16.8398 187.129 16.7109 186.527 16.4531C185.934 16.1953 185.523 15.793 185.297 15.2461C184.898 15.8008 184.352 16.207 183.656 16.4648C182.969 16.7148 182.293 16.8398 181.629 16.8398C181.02 16.8398 180.449 16.7266 179.918 16.5C179.395 16.2656 178.973 15.9219 178.652 15.4688C178.332 15.0156 178.172 14.4609 178.172 13.8047ZM183.457 12.7734C183.457 13.0859 183.531 13.3828 183.68 13.6641C183.828 13.9375 184.082 14.0742 184.441 14.0742C184.512 14.0742 184.578 14.0664 184.641 14.0508V11.625C184.508 11.5703 184.371 11.543 184.23 11.543C183.934 11.543 183.73 11.6914 183.621 11.9883C183.512 12.2773 183.457 12.5391 183.457 12.7734Z" fill="#DE6400"/>
</svg>
